<svg enable-background="new 0 0 520 520" height="512" viewBox="0 0 520 520" width="512" xmlns="http://www.w3.org/2000/svg"><g id="_x31_055_x2C__Activities_x2C__Football_Ground_x2C__Healthy_x2C__Hobby_x2C_"><g><path d="m420 10c-15.67 0-304.15 0-320 0-5.523 0-10 4.477-10 10v480c0 5.522 4.477 10 10 10h320c5.522 0 10-4.478 10-10v-480c0-5.523-4.478-10-10-10zm-100 20v40c-24.401 0-91.555 0-120 0v-40zm-31.714 60c-4.127 11.641-15.249 20-28.286 20-13.038 0-24.159-8.359-28.286-20zm-108.286-60v50c0 5.523 4.477 10 10 10h21.006c4.646 22.795 24.847 40 48.993 40s44.349-17.205 48.994-40h21.007c5.522 0 10-4.477 10-10v-50h70v220h-80.726c-4.868-33.876-34.072-60-69.274-60s-64.405 26.124-69.274 60h-80.726v-220zm130 230c0 27.57-22.43 50-50 50s-50-22.43-50-50 22.43-50 50-50 50 22.43 50 50zm-110 230v-40h120v40zm31.714-60c4.127-11.641 15.249-20 28.286-20s24.159 8.359 28.286 20zm108.286 60v-50c0-5.522-4.478-10-10-10h-21.017c-4.646-22.793-24.838-40-48.983-40-24.146 0-44.348 17.205-48.993 40h-21.007c-5.523 0-10 4.478-10 10v50h-70v-220h80.726c4.869 33.876 34.072 60 69.274 60s64.405-26.124 69.274-60h80.726v220z"/><path d="m260 230c-16.542 0-30 13.458-30 30s13.458 30 30 30 30-13.458 30-30-13.458-30-30-30zm0 40c-5.514 0-10-4.486-10-10s4.486-10 10-10 10 4.486 10 10-4.486 10-10 10z"/></g></g></svg>